<?xml version="1.0" encoding="utf-8"?>
<!-- Generator: Adobe Illustrator 19.0.0, SVG Export Plug-In . SVG Version: 6.00 Build 0)  -->
<svg version="1.2" baseProfile="tiny" id="Layer_1" xmlns="http://www.w3.org/2000/svg" xmlns:xlink="http://www.w3.org/1999/xlink"
	 x="0px" y="0px" viewBox="0 0 375 115" xml:space="preserve">
<path id="XMLID_68_" fill="none" stroke="#353535" stroke-width="1.4173" stroke-miterlimit="10" d="M14.8,24.5
	c4.2-2.8,9.3-5.8,15.2-8.6c10.6-5,19.4-6.1,26.6-3.8c7.3,2.3,13.4,7.5,17.8,16.8c4.4,9.3,5.1,18.4,2.3,26.2
	c-2.8,7.9-10.3,15-21.4,20.2c-5.3,2.5-9.8,4.3-13.8,5.7L14.8,24.5z M46.1,71.6c2-0.5,4.8-1.7,7.7-3.1C69.6,61,74,48.1,66.7,32.7
	c-6.3-13.6-18-18.5-33.6-11.1c-3.8,1.8-6.6,3.5-8.3,4.9L46.1,71.6z"/>
<path id="XMLID_71_" fill="none" stroke="#353535" stroke-width="1.4173" stroke-miterlimit="10" d="M126.4,52.6L125,47l-0.3,0
	c-2.1,3.9-6.5,7.7-12.9,8.5c-9.1,1.2-14.6-4.6-15.5-11.2c-1.4-10.9,7.5-18.1,24.9-20.3l-0.1-0.9c-0.5-3.7-2.4-10.3-11.6-9.1
	c-4.2,0.5-8.4,2.4-11.3,4.9l-2.6-5.2c3.4-2.9,8.6-5.2,14.3-5.9C123.7,6,128.3,15,129.5,24l2.2,16.9c0.5,3.9,1.2,7.7,2.2,10.7
	L126.4,52.6z M122.2,29.7c-9,1-18.9,3.9-17.8,12.7c0.7,5.3,4.6,7.4,8.8,6.8c5.9-0.8,9.1-5,9.9-9c0.2-0.9,0.2-1.8,0.1-2.7L122.2,29.7
	z"/>
<path id="XMLID_74_" fill="none" stroke="#353535" stroke-width="1.4173" stroke-miterlimit="10" d="M157.2,20.3
	c1.4-4.5,2.4-8.2,3.2-11.9l7,2.1l-1.7,7.3l0.2,0.1c3.4-3.5,9.7-6,16.9-3.8c6,1.8,14.3,8.2,9.8,23.2l-7.8,26l-7.9-2.4l7.6-25.1
	c2.1-7,1.3-13.7-6.2-15.9c-5.2-1.6-10.4,0.9-13.1,4.9c-0.7,0.9-1.2,2.2-1.7,3.5l-7.9,26.2l-7.9-2.4L157.2,20.3z"/>
<path id="XMLID_76_" fill="none" stroke="#353535" stroke-width="1.4173" stroke-miterlimit="10" d="M199.6,73.6l21.6-40l7.3,3.9
	l-21.6,40L199.6,73.6z M235.4,26.8c-1.3,2.5-4.2,3.5-7,2c-2.6-1.4-3.3-4.4-2-6.8c1.4-2.6,4.4-3.5,7-2.1
	C236.1,21.3,236.8,24.2,235.4,26.8z"/>
<path id="XMLID_79_" fill="none" stroke="#353535" stroke-width="1.4173" stroke-miterlimit="10" d="M219.2,100.2
	c3.7,0.8,7.1,0.7,9.6-0.8c2.9-1.9,4.7-5.1,7.8-15.5l10.8-36.5l7.9,2.3l-11.7,39.6c-2.5,8.5-5.5,13.6-10.5,16.4
	c-4.6,2.5-10.8,2.2-15,1L219.2,100.2z M259.9,37.8c-0.7,2.6-3.2,4.3-6.4,3.4c-3-0.9-4.2-3.7-3.4-6.3c0.8-2.8,3.5-4.3,6.5-3.5
	C259.4,32.2,260.7,35,259.9,37.8z"/>
<path id="XMLID_82_" fill="none" stroke="#353535" stroke-width="1.4173" stroke-miterlimit="10" d="M283.7,75.4
	c2.4,10.9,10.3,14,18.4,12.4c5.8-1.2,9.1-2.9,11.9-4.8l2.6,5.5c-2.6,1.9-7.2,4.3-14.3,5.8c-13.7,2.8-23.8-4.6-26.5-18
	c-2.7-13.4,3-25.7,16-28.3c14.6-3,21,9,22.7,17.2c0.3,1.7,0.4,3,0.5,3.8L283.7,75.4z M306.3,64.8c-1-5.2-4.8-12.7-13.9-10.9
	c-8.2,1.7-10.2,10-9.7,15.7L306.3,64.8z"/>
<path id="XMLID_85_" fill="none" stroke="#353535" stroke-width="1.4173" stroke-miterlimit="10" d="M315,18.1l7.3-3.9L353.7,73
	l-7.3,3.9L315,18.1z"/>
</svg>
