<?xml version="1.0" encoding="utf-8"?>
<!-- Generator: Adobe Illustrator 19.0.0, SVG Export Plug-In . SVG Version: 6.00 Build 0)  -->
<svg version="1.2" baseProfile="tiny" id="Layer_1" xmlns="http://www.w3.org/2000/svg" xmlns:xlink="http://www.w3.org/1999/xlink"
	 x="0px" y="0px" viewBox="-143 -324 324 324" xml:space="preserve">
<title>20 by 20 orthogonal maze</title>
<desc>20 by 20 orthogonal maze generated by The Maze Generator Website (http://www.mazegenerator.net/).</desc>
<polyline fill="none" stroke="#FF0000" stroke-width="2" stroke-linecap="square" stroke-linejoin="round" points="27,-2 27,-10 
	11,-10 11,-58 -5,-58 -5,-42 -37,-42 -37,-74 -5,-74 -5,-90 -21,-90 -21,-106 -37,-106 -37,-122 -5,-122 -5,-138 -21,-138 -21,-170 
	-5,-170 -5,-154 27,-154 27,-122 43,-122 43,-154 91,-154 91,-170 107,-170 107,-186 91,-186 91,-218 59,-218 59,-202 75,-202 
	75,-186 59,-186 59,-170 27,-170 27,-186 43,-186 43,-218 11,-218 11,-202 -5,-202 -5,-186 -37,-186 -37,-202 -21,-202 -21,-234 
	-5,-234 -5,-250 11,-250 11,-266 27,-266 27,-234 75,-234 75,-266 59,-266 59,-298 75,-298 75,-314 27,-314 27,-298 11,-298 
	11,-322 "/>
</svg>
