<?xml version="1.0" encoding="utf-8"?>
<!-- Generator: Adobe Illustrator 19.0.0, SVG Export Plug-In . SVG Version: 6.00 Build 0)  -->
<svg version="1.2" baseProfile="tiny" id="Layer_1" xmlns="http://www.w3.org/2000/svg" xmlns:xlink="http://www.w3.org/1999/xlink"
	 x="0px" y="0px" viewBox="-143 235 324 324" xml:space="preserve">
<title>20 by 20 orthogonal maze</title>
<desc>20 by 20 orthogonal maze generated by The Maze Generator Website (http://www.mazegenerator.net/).</desc>
<g>
	<line fill="none" stroke="#000000" stroke-width="2" stroke-linecap="square" x1="-141" y1="237" x2="3" y2="237"/>
	<line fill="none" stroke="#000000" stroke-width="2" stroke-linecap="square" x1="19" y1="237" x2="179" y2="237"/>
	<line fill="none" stroke="#000000" stroke-width="2" stroke-linecap="square" x1="-61" y1="253" x2="-13" y2="253"/>
	<line fill="none" stroke="#000000" stroke-width="2" stroke-linecap="square" x1="35" y1="253" x2="67" y2="253"/>
	<line fill="none" stroke="#000000" stroke-width="2" stroke-linecap="square" x1="-141" y1="269" x2="-125" y2="269"/>
	<line fill="none" stroke="#000000" stroke-width="2" stroke-linecap="square" x1="-77" y1="269" x2="-61" y2="269"/>
	<line fill="none" stroke="#000000" stroke-width="2" stroke-linecap="square" x1="-13" y1="269" x2="35" y2="269"/>
	<line fill="none" stroke="#000000" stroke-width="2" stroke-linecap="square" x1="67" y1="269" x2="83" y2="269"/>
	<line fill="none" stroke="#000000" stroke-width="2" stroke-linecap="square" x1="115" y1="269" x2="131" y2="269"/>
	<line fill="none" stroke="#000000" stroke-width="2" stroke-linecap="square" x1="147" y1="269" x2="179" y2="269"/>
	<line fill="none" stroke="#000000" stroke-width="2" stroke-linecap="square" x1="-125" y1="285" x2="-93" y2="285"/>
	<line fill="none" stroke="#000000" stroke-width="2" stroke-linecap="square" x1="-61" y1="285" x2="-13" y2="285"/>
	<line fill="none" stroke="#000000" stroke-width="2" stroke-linecap="square" x1="3" y1="285" x2="51" y2="285"/>
	<line fill="none" stroke="#000000" stroke-width="2" stroke-linecap="square" x1="67" y1="285" x2="83" y2="285"/>
	<line fill="none" stroke="#000000" stroke-width="2" stroke-linecap="square" x1="99" y1="285" x2="163" y2="285"/>
	<line fill="none" stroke="#000000" stroke-width="2" stroke-linecap="square" x1="-125" y1="301" x2="-109" y2="301"/>
	<line fill="none" stroke="#000000" stroke-width="2" stroke-linecap="square" x1="-77" y1="301" x2="-61" y2="301"/>
	<line fill="none" stroke="#000000" stroke-width="2" stroke-linecap="square" x1="-13" y1="301" x2="3" y2="301"/>
	<line fill="none" stroke="#000000" stroke-width="2" stroke-linecap="square" x1="51" y1="301" x2="67" y2="301"/>
	<line fill="none" stroke="#000000" stroke-width="2" stroke-linecap="square" x1="83" y1="301" x2="99" y2="301"/>
	<line fill="none" stroke="#000000" stroke-width="2" stroke-linecap="square" x1="147" y1="301" x2="163" y2="301"/>
	<line fill="none" stroke="#000000" stroke-width="2" stroke-linecap="square" x1="-77" y1="317" x2="-13" y2="317"/>
	<line fill="none" stroke="#000000" stroke-width="2" stroke-linecap="square" x1="3" y1="317" x2="19" y2="317"/>
	<line fill="none" stroke="#000000" stroke-width="2" stroke-linecap="square" x1="35" y1="317" x2="67" y2="317"/>
	<line fill="none" stroke="#000000" stroke-width="2" stroke-linecap="square" x1="99" y1="317" x2="115" y2="317"/>
	<line fill="none" stroke="#000000" stroke-width="2" stroke-linecap="square" x1="131" y1="317" x2="147" y2="317"/>
	<line fill="none" stroke="#000000" stroke-width="2" stroke-linecap="square" x1="-125" y1="333" x2="-77" y2="333"/>
	<line fill="none" stroke="#000000" stroke-width="2" stroke-linecap="square" x1="-61" y1="333" x2="-45" y2="333"/>
	<line fill="none" stroke="#000000" stroke-width="2" stroke-linecap="square" x1="-13" y1="333" x2="99" y2="333"/>
	<line fill="none" stroke="#000000" stroke-width="2" stroke-linecap="square" x1="115" y1="333" x2="131" y2="333"/>
	<line fill="none" stroke="#000000" stroke-width="2" stroke-linecap="square" x1="147" y1="333" x2="163" y2="333"/>
	<line fill="none" stroke="#000000" stroke-width="2" stroke-linecap="square" x1="-141" y1="349" x2="-125" y2="349"/>
	<line fill="none" stroke="#000000" stroke-width="2" stroke-linecap="square" x1="-93" y1="349" x2="-61" y2="349"/>
	<line fill="none" stroke="#000000" stroke-width="2" stroke-linecap="square" x1="-45" y1="349" x2="-29" y2="349"/>
	<line fill="none" stroke="#000000" stroke-width="2" stroke-linecap="square" x1="19" y1="349" x2="35" y2="349"/>
	<line fill="none" stroke="#000000" stroke-width="2" stroke-linecap="square" x1="67" y1="349" x2="83" y2="349"/>
	<line fill="none" stroke="#000000" stroke-width="2" stroke-linecap="square" x1="131" y1="349" x2="147" y2="349"/>
	<line fill="none" stroke="#000000" stroke-width="2" stroke-linecap="square" x1="-109" y1="365" x2="-61" y2="365"/>
	<line fill="none" stroke="#000000" stroke-width="2" stroke-linecap="square" x1="-29" y1="365" x2="-13" y2="365"/>
	<line fill="none" stroke="#000000" stroke-width="2" stroke-linecap="square" x1="3" y1="365" x2="35" y2="365"/>
	<line fill="none" stroke="#000000" stroke-width="2" stroke-linecap="square" x1="51" y1="365" x2="67" y2="365"/>
	<line fill="none" stroke="#000000" stroke-width="2" stroke-linecap="square" x1="99" y1="365" x2="115" y2="365"/>
	<line fill="none" stroke="#000000" stroke-width="2" stroke-linecap="square" x1="131" y1="365" x2="179" y2="365"/>
	<line fill="none" stroke="#000000" stroke-width="2" stroke-linecap="square" x1="-77" y1="381" x2="3" y2="381"/>
	<line fill="none" stroke="#000000" stroke-width="2" stroke-linecap="square" x1="35" y1="381" x2="51" y2="381"/>
	<line fill="none" stroke="#000000" stroke-width="2" stroke-linecap="square" x1="67" y1="381" x2="99" y2="381"/>
	<line fill="none" stroke="#000000" stroke-width="2" stroke-linecap="square" x1="115" y1="381" x2="163" y2="381"/>
	<line fill="none" stroke="#000000" stroke-width="2" stroke-linecap="square" x1="-125" y1="397" x2="-93" y2="397"/>
	<line fill="none" stroke="#000000" stroke-width="2" stroke-linecap="square" x1="-61" y1="397" x2="-45" y2="397"/>
	<line fill="none" stroke="#000000" stroke-width="2" stroke-linecap="square" x1="3" y1="397" x2="67" y2="397"/>
	<line fill="none" stroke="#000000" stroke-width="2" stroke-linecap="square" x1="99" y1="397" x2="115" y2="397"/>
	<line fill="none" stroke="#000000" stroke-width="2" stroke-linecap="square" x1="131" y1="397" x2="179" y2="397"/>
	<line fill="none" stroke="#000000" stroke-width="2" stroke-linecap="square" x1="-125" y1="413" x2="-109" y2="413"/>
	<line fill="none" stroke="#000000" stroke-width="2" stroke-linecap="square" x1="-93" y1="413" x2="-61" y2="413"/>
	<line fill="none" stroke="#000000" stroke-width="2" stroke-linecap="square" x1="-45" y1="413" x2="-29" y2="413"/>
	<line fill="none" stroke="#000000" stroke-width="2" stroke-linecap="square" x1="-13" y1="413" x2="19" y2="413"/>
	<line fill="none" stroke="#000000" stroke-width="2" stroke-linecap="square" x1="51" y1="413" x2="99" y2="413"/>
	<line fill="none" stroke="#000000" stroke-width="2" stroke-linecap="square" x1="115" y1="413" x2="131" y2="413"/>
	<line fill="none" stroke="#000000" stroke-width="2" stroke-linecap="square" x1="147" y1="413" x2="163" y2="413"/>
	<line fill="none" stroke="#000000" stroke-width="2" stroke-linecap="square" x1="-141" y1="429" x2="-125" y2="429"/>
	<line fill="none" stroke="#000000" stroke-width="2" stroke-linecap="square" x1="-109" y1="429" x2="-93" y2="429"/>
	<line fill="none" stroke="#000000" stroke-width="2" stroke-linecap="square" x1="-77" y1="429" x2="-13" y2="429"/>
	<line fill="none" stroke="#000000" stroke-width="2" stroke-linecap="square" x1="67" y1="429" x2="179" y2="429"/>
	<line fill="none" stroke="#000000" stroke-width="2" stroke-linecap="square" x1="-125" y1="445" x2="-109" y2="445"/>
	<line fill="none" stroke="#000000" stroke-width="2" stroke-linecap="square" x1="-93" y1="445" x2="-61" y2="445"/>
	<line fill="none" stroke="#000000" stroke-width="2" stroke-linecap="square" x1="-29" y1="445" x2="3" y2="445"/>
	<line fill="none" stroke="#000000" stroke-width="2" stroke-linecap="square" x1="19" y1="445" x2="51" y2="445"/>
	<line fill="none" stroke="#000000" stroke-width="2" stroke-linecap="square" x1="99" y1="445" x2="163" y2="445"/>
	<line fill="none" stroke="#000000" stroke-width="2" stroke-linecap="square" x1="-141" y1="461" x2="-125" y2="461"/>
	<line fill="none" stroke="#000000" stroke-width="2" stroke-linecap="square" x1="-109" y1="461" x2="-61" y2="461"/>
	<line fill="none" stroke="#000000" stroke-width="2" stroke-linecap="square" x1="-45" y1="461" x2="-29" y2="461"/>
	<line fill="none" stroke="#000000" stroke-width="2" stroke-linecap="square" x1="-13" y1="461" x2="3" y2="461"/>
	<line fill="none" stroke="#000000" stroke-width="2" stroke-linecap="square" x1="51" y1="461" x2="67" y2="461"/>
	<line fill="none" stroke="#000000" stroke-width="2" stroke-linecap="square" x1="115" y1="461" x2="131" y2="461"/>
	<line fill="none" stroke="#000000" stroke-width="2" stroke-linecap="square" x1="-125" y1="477" x2="-77" y2="477"/>
	<line fill="none" stroke="#000000" stroke-width="2" stroke-linecap="square" x1="-61" y1="477" x2="-13" y2="477"/>
	<line fill="none" stroke="#000000" stroke-width="2" stroke-linecap="square" x1="19" y1="477" x2="51" y2="477"/>
	<line fill="none" stroke="#000000" stroke-width="2" stroke-linecap="square" x1="99" y1="477" x2="115" y2="477"/>
	<line fill="none" stroke="#000000" stroke-width="2" stroke-linecap="square" x1="131" y1="477" x2="147" y2="477"/>
	<line fill="none" stroke="#000000" stroke-width="2" stroke-linecap="square" x1="-141" y1="493" x2="-109" y2="493"/>
	<line fill="none" stroke="#000000" stroke-width="2" stroke-linecap="square" x1="-93" y1="493" x2="-61" y2="493"/>
	<line fill="none" stroke="#000000" stroke-width="2" stroke-linecap="square" x1="-29" y1="493" x2="35" y2="493"/>
	<line fill="none" stroke="#000000" stroke-width="2" stroke-linecap="square" x1="51" y1="493" x2="83" y2="493"/>
	<line fill="none" stroke="#000000" stroke-width="2" stroke-linecap="square" x1="115" y1="493" x2="131" y2="493"/>
	<line fill="none" stroke="#000000" stroke-width="2" stroke-linecap="square" x1="147" y1="493" x2="179" y2="493"/>
	<line fill="none" stroke="#000000" stroke-width="2" stroke-linecap="square" x1="-77" y1="509" x2="-45" y2="509"/>
	<line fill="none" stroke="#000000" stroke-width="2" stroke-linecap="square" x1="-29" y1="509" x2="-13" y2="509"/>
	<line fill="none" stroke="#000000" stroke-width="2" stroke-linecap="square" x1="35" y1="509" x2="67" y2="509"/>
	<line fill="none" stroke="#000000" stroke-width="2" stroke-linecap="square" x1="99" y1="509" x2="115" y2="509"/>
	<line fill="none" stroke="#000000" stroke-width="2" stroke-linecap="square" x1="131" y1="509" x2="179" y2="509"/>
	<line fill="none" stroke="#000000" stroke-width="2" stroke-linecap="square" x1="-109" y1="525" x2="-93" y2="525"/>
	<line fill="none" stroke="#000000" stroke-width="2" stroke-linecap="square" x1="-77" y1="525" x2="-61" y2="525"/>
	<line fill="none" stroke="#000000" stroke-width="2" stroke-linecap="square" x1="-29" y1="525" x2="3" y2="525"/>
	<line fill="none" stroke="#000000" stroke-width="2" stroke-linecap="square" x1="67" y1="525" x2="99" y2="525"/>
	<line fill="none" stroke="#000000" stroke-width="2" stroke-linecap="square" x1="115" y1="525" x2="131" y2="525"/>
	<line fill="none" stroke="#000000" stroke-width="2" stroke-linecap="square" x1="-125" y1="541" x2="-77" y2="541"/>
	<line fill="none" stroke="#000000" stroke-width="2" stroke-linecap="square" x1="-61" y1="541" x2="-13" y2="541"/>
	<line fill="none" stroke="#000000" stroke-width="2" stroke-linecap="square" x1="19" y1="541" x2="35" y2="541"/>
	<line fill="none" stroke="#000000" stroke-width="2" stroke-linecap="square" x1="51" y1="541" x2="83" y2="541"/>
	<line fill="none" stroke="#000000" stroke-width="2" stroke-linecap="square" x1="99" y1="541" x2="163" y2="541"/>
	<line fill="none" stroke="#000000" stroke-width="2" stroke-linecap="square" x1="-141" y1="557" x2="19" y2="557"/>
	<line fill="none" stroke="#000000" stroke-width="2" stroke-linecap="square" x1="35" y1="557" x2="179" y2="557"/>
	<line fill="none" stroke="#000000" stroke-width="2" stroke-linecap="square" x1="-141" y1="237" x2="-141" y2="557"/>
	<line fill="none" stroke="#000000" stroke-width="2" stroke-linecap="square" x1="-125" y1="237" x2="-125" y2="253"/>
	<line fill="none" stroke="#000000" stroke-width="2" stroke-linecap="square" x1="-125" y1="301" x2="-125" y2="333"/>
	<line fill="none" stroke="#000000" stroke-width="2" stroke-linecap="square" x1="-125" y1="365" x2="-125" y2="397"/>
	<line fill="none" stroke="#000000" stroke-width="2" stroke-linecap="square" x1="-125" y1="429" x2="-125" y2="445"/>
	<line fill="none" stroke="#000000" stroke-width="2" stroke-linecap="square" x1="-125" y1="509" x2="-125" y2="541"/>
	<line fill="none" stroke="#000000" stroke-width="2" stroke-linecap="square" x1="-109" y1="253" x2="-109" y2="285"/>
	<line fill="none" stroke="#000000" stroke-width="2" stroke-linecap="square" x1="-109" y1="301" x2="-109" y2="317"/>
	<line fill="none" stroke="#000000" stroke-width="2" stroke-linecap="square" x1="-109" y1="333" x2="-109" y2="381"/>
	<line fill="none" stroke="#000000" stroke-width="2" stroke-linecap="square" x1="-109" y1="413" x2="-109" y2="429"/>
	<line fill="none" stroke="#000000" stroke-width="2" stroke-linecap="square" x1="-109" y1="477" x2="-109" y2="509"/>
	<line fill="none" stroke="#000000" stroke-width="2" stroke-linecap="square" x1="-93" y1="237" x2="-93" y2="333"/>
	<line fill="none" stroke="#000000" stroke-width="2" stroke-linecap="square" x1="-93" y1="381" x2="-93" y2="413"/>
	<line fill="none" stroke="#000000" stroke-width="2" stroke-linecap="square" x1="-93" y1="429" x2="-93" y2="445"/>
	<line fill="none" stroke="#000000" stroke-width="2" stroke-linecap="square" x1="-93" y1="493" x2="-93" y2="525"/>
	<line fill="none" stroke="#000000" stroke-width="2" stroke-linecap="square" x1="-77" y1="253" x2="-77" y2="317"/>
	<line fill="none" stroke="#000000" stroke-width="2" stroke-linecap="square" x1="-77" y1="381" x2="-77" y2="397"/>
	<line fill="none" stroke="#000000" stroke-width="2" stroke-linecap="square" x1="-77" y1="413" x2="-77" y2="429"/>
	<line fill="none" stroke="#000000" stroke-width="2" stroke-linecap="square" x1="-77" y1="461" x2="-77" y2="477"/>
	<line fill="none" stroke="#000000" stroke-width="2" stroke-linecap="square" x1="-77" y1="525" x2="-77" y2="557"/>
	<line fill="none" stroke="#000000" stroke-width="2" stroke-linecap="square" x1="-61" y1="237" x2="-61" y2="253"/>
	<line fill="none" stroke="#000000" stroke-width="2" stroke-linecap="square" x1="-61" y1="333" x2="-61" y2="365"/>
	<line fill="none" stroke="#000000" stroke-width="2" stroke-linecap="square" x1="-61" y1="397" x2="-61" y2="413"/>
	<line fill="none" stroke="#000000" stroke-width="2" stroke-linecap="square" x1="-61" y1="445" x2="-61" y2="461"/>
	<line fill="none" stroke="#000000" stroke-width="2" stroke-linecap="square" x1="-61" y1="477" x2="-61" y2="493"/>
	<line fill="none" stroke="#000000" stroke-width="2" stroke-linecap="square" x1="-45" y1="253" x2="-45" y2="301"/>
	<line fill="none" stroke="#000000" stroke-width="2" stroke-linecap="square" x1="-45" y1="349" x2="-45" y2="381"/>
	<line fill="none" stroke="#000000" stroke-width="2" stroke-linecap="square" x1="-45" y1="429" x2="-45" y2="461"/>
	<line fill="none" stroke="#000000" stroke-width="2" stroke-linecap="square" x1="-45" y1="477" x2="-45" y2="541"/>
	<line fill="none" stroke="#000000" stroke-width="2" stroke-linecap="square" x1="-29" y1="269" x2="-29" y2="285"/>
	<line fill="none" stroke="#000000" stroke-width="2" stroke-linecap="square" x1="-29" y1="301" x2="-29" y2="349"/>
	<line fill="none" stroke="#000000" stroke-width="2" stroke-linecap="square" x1="-29" y1="381" x2="-29" y2="429"/>
	<line fill="none" stroke="#000000" stroke-width="2" stroke-linecap="square" x1="-29" y1="461" x2="-29" y2="477"/>
	<line fill="none" stroke="#000000" stroke-width="2" stroke-linecap="square" x1="-29" y1="493" x2="-29" y2="509"/>
	<line fill="none" stroke="#000000" stroke-width="2" stroke-linecap="square" x1="-13" y1="301" x2="-13" y2="317"/>
	<line fill="none" stroke="#000000" stroke-width="2" stroke-linecap="square" x1="-13" y1="333" x2="-13" y2="365"/>
	<line fill="none" stroke="#000000" stroke-width="2" stroke-linecap="square" x1="-13" y1="397" x2="-13" y2="413"/>
	<line fill="none" stroke="#000000" stroke-width="2" stroke-linecap="square" x1="-13" y1="445" x2="-13" y2="461"/>
	<line fill="none" stroke="#000000" stroke-width="2" stroke-linecap="square" x1="3" y1="237" x2="3" y2="269"/>
	<line fill="none" stroke="#000000" stroke-width="2" stroke-linecap="square" x1="3" y1="285" x2="3" y2="301"/>
	<line fill="none" stroke="#000000" stroke-width="2" stroke-linecap="square" x1="3" y1="333" x2="3" y2="349"/>
	<line fill="none" stroke="#000000" stroke-width="2" stroke-linecap="square" x1="3" y1="365" x2="3" y2="381"/>
	<line fill="none" stroke="#000000" stroke-width="2" stroke-linecap="square" x1="3" y1="413" x2="3" y2="445"/>
	<line fill="none" stroke="#000000" stroke-width="2" stroke-linecap="square" x1="3" y1="461" x2="3" y2="493"/>
	<line fill="none" stroke="#000000" stroke-width="2" stroke-linecap="square" x1="3" y1="509" x2="3" y2="557"/>
	<line fill="none" stroke="#000000" stroke-width="2" stroke-linecap="square" x1="19" y1="237" x2="19" y2="253"/>
	<line fill="none" stroke="#000000" stroke-width="2" stroke-linecap="square" x1="19" y1="301" x2="19" y2="333"/>
	<line fill="none" stroke="#000000" stroke-width="2" stroke-linecap="square" x1="19" y1="349" x2="19" y2="397"/>
	<line fill="none" stroke="#000000" stroke-width="2" stroke-linecap="square" x1="19" y1="413" x2="19" y2="461"/>
	<line fill="none" stroke="#000000" stroke-width="2" stroke-linecap="square" x1="19" y1="509" x2="19" y2="541"/>
	<line fill="none" stroke="#000000" stroke-width="2" stroke-linecap="square" x1="35" y1="253" x2="35" y2="285"/>
	<line fill="none" stroke="#000000" stroke-width="2" stroke-linecap="square" x1="35" y1="301" x2="35" y2="317"/>
	<line fill="none" stroke="#000000" stroke-width="2" stroke-linecap="square" x1="35" y1="397" x2="35" y2="429"/>
	<line fill="none" stroke="#000000" stroke-width="2" stroke-linecap="square" x1="35" y1="461" x2="35" y2="541"/>
	<line fill="none" stroke="#000000" stroke-width="2" stroke-linecap="square" x1="51" y1="253" x2="51" y2="269"/>
	<line fill="none" stroke="#000000" stroke-width="2" stroke-linecap="square" x1="51" y1="285" x2="51" y2="301"/>
	<line fill="none" stroke="#000000" stroke-width="2" stroke-linecap="square" x1="51" y1="333" x2="51" y2="381"/>
	<line fill="none" stroke="#000000" stroke-width="2" stroke-linecap="square" x1="51" y1="413" x2="51" y2="445"/>
	<line fill="none" stroke="#000000" stroke-width="2" stroke-linecap="square" x1="51" y1="461" x2="51" y2="477"/>
	<line fill="none" stroke="#000000" stroke-width="2" stroke-linecap="square" x1="51" y1="525" x2="51" y2="557"/>
	<line fill="none" stroke="#000000" stroke-width="2" stroke-linecap="square" x1="67" y1="269" x2="67" y2="285"/>
	<line fill="none" stroke="#000000" stroke-width="2" stroke-linecap="square" x1="67" y1="301" x2="67" y2="317"/>
	<line fill="none" stroke="#000000" stroke-width="2" stroke-linecap="square" x1="67" y1="381" x2="67" y2="397"/>
	<line fill="none" stroke="#000000" stroke-width="2" stroke-linecap="square" x1="67" y1="445" x2="67" y2="461"/>
	<line fill="none" stroke="#000000" stroke-width="2" stroke-linecap="square" x1="67" y1="477" x2="67" y2="493"/>
	<line fill="none" stroke="#000000" stroke-width="2" stroke-linecap="square" x1="67" y1="509" x2="67" y2="525"/>
	<line fill="none" stroke="#000000" stroke-width="2" stroke-linecap="square" x1="83" y1="237" x2="83" y2="269"/>
	<line fill="none" stroke="#000000" stroke-width="2" stroke-linecap="square" x1="83" y1="285" x2="83" y2="333"/>
	<line fill="none" stroke="#000000" stroke-width="2" stroke-linecap="square" x1="83" y1="349" x2="83" y2="397"/>
	<line fill="none" stroke="#000000" stroke-width="2" stroke-linecap="square" x1="83" y1="429" x2="83" y2="509"/>
	<line fill="none" stroke="#000000" stroke-width="2" stroke-linecap="square" x1="99" y1="253" x2="99" y2="285"/>
	<line fill="none" stroke="#000000" stroke-width="2" stroke-linecap="square" x1="99" y1="317" x2="99" y2="365"/>
	<line fill="none" stroke="#000000" stroke-width="2" stroke-linecap="square" x1="99" y1="397" x2="99" y2="413"/>
	<line fill="none" stroke="#000000" stroke-width="2" stroke-linecap="square" x1="99" y1="461" x2="99" y2="541"/>
	<line fill="none" stroke="#000000" stroke-width="2" stroke-linecap="square" x1="115" y1="237" x2="115" y2="269"/>
	<line fill="none" stroke="#000000" stroke-width="2" stroke-linecap="square" x1="115" y1="301" x2="115" y2="317"/>
	<line fill="none" stroke="#000000" stroke-width="2" stroke-linecap="square" x1="115" y1="349" x2="115" y2="413"/>
	<line fill="none" stroke="#000000" stroke-width="2" stroke-linecap="square" x1="115" y1="461" x2="115" y2="477"/>
	<line fill="none" stroke="#000000" stroke-width="2" stroke-linecap="square" x1="131" y1="253" x2="131" y2="269"/>
	<line fill="none" stroke="#000000" stroke-width="2" stroke-linecap="square" x1="131" y1="285" x2="131" y2="365"/>
	<line fill="none" stroke="#000000" stroke-width="2" stroke-linecap="square" x1="131" y1="445" x2="131" y2="461"/>
	<line fill="none" stroke="#000000" stroke-width="2" stroke-linecap="square" x1="131" y1="477" x2="131" y2="509"/>
	<line fill="none" stroke="#000000" stroke-width="2" stroke-linecap="square" x1="131" y1="525" x2="131" y2="541"/>
	<line fill="none" stroke="#000000" stroke-width="2" stroke-linecap="square" x1="147" y1="253" x2="147" y2="269"/>
	<line fill="none" stroke="#000000" stroke-width="2" stroke-linecap="square" x1="147" y1="397" x2="147" y2="413"/>
	<line fill="none" stroke="#000000" stroke-width="2" stroke-linecap="square" x1="147" y1="461" x2="147" y2="477"/>
	<line fill="none" stroke="#000000" stroke-width="2" stroke-linecap="square" x1="147" y1="509" x2="147" y2="525"/>
	<line fill="none" stroke="#000000" stroke-width="2" stroke-linecap="square" x1="163" y1="237" x2="163" y2="253"/>
	<line fill="none" stroke="#000000" stroke-width="2" stroke-linecap="square" x1="163" y1="285" x2="163" y2="349"/>
	<line fill="none" stroke="#000000" stroke-width="2" stroke-linecap="square" x1="163" y1="445" x2="163" y2="477"/>
	<line fill="none" stroke="#000000" stroke-width="2" stroke-linecap="square" x1="163" y1="525" x2="163" y2="541"/>
	<line fill="none" stroke="#000000" stroke-width="2" stroke-linecap="square" x1="179" y1="237" x2="179" y2="557"/>
</g>
</svg>
